<?xml version="1.0" encoding="utf-8"?>
<!-- Generator: Adobe Illustrator 19.0.1, SVG Export Plug-In . SVG Version: 6.00 Build 0)  -->
<svg version="1.1" id="Layer_1" xmlns="http://www.w3.org/2000/svg" xmlns:xlink="http://www.w3.org/1999/xlink" x="0px" y="0px"
	 viewBox="0 0 152.9 39" style="enable-background:new 0 0 152.9 39;" xml:space="preserve">
<style type="text/css">
	.st0{fill:#010101;}
	.st1{fill:#F2BD1A;}
	.st2{fill:#40BEB0;}
	.st3{fill:#37A595;}
</style>
<g>
	<g>
		<g>
			<path class="st0" d="M44.5,29V6.5h2.4V29H44.5z"/>
			<path class="st0" d="M50.9,21.1c0-2.9,0.5-4.9,1.5-6.2c1-1.3,2.8-1.9,5.2-1.9c2.4,0,4.2,0.6,5.2,1.9c1,1.3,1.5,3.4,1.5,6.2
				c0,2.9-0.5,5-1.4,6.3c-1,1.3-2.7,1.9-5.3,1.9c-2.6,0-4.3-0.6-5.3-1.9C51.4,26.1,50.9,24,50.9,21.1z M53.3,21.1
				c0,2.3,0.3,3.9,0.8,4.8c0.6,0.9,1.7,1.4,3.5,1.4c1.8,0,2.9-0.5,3.5-1.4c0.5-0.9,0.8-2.5,0.8-4.8c0-2.3-0.3-3.9-0.9-4.8
				c-0.6-0.9-1.7-1.3-3.4-1.3c-1.6,0-2.8,0.4-3.4,1.3C53.6,17.2,53.3,18.8,53.3,21.1z"/>
			<path class="st0" d="M74.3,36.4c-2.5,0-4.3-0.3-5.3-1c-1-0.7-1.5-1.9-1.5-3.7c0-0.9,0.2-1.6,0.6-2.1c0.4-0.5,1-1.1,1.9-1.8
				c-0.6-0.4-0.9-1.1-0.9-2.2c0-0.4,0.3-1,0.8-2l0.3-0.5c-1.7-0.8-2.5-2.3-2.5-4.7c0-3.6,2-5.4,5.9-5.4c1,0,1.9,0.1,2.8,0.3l0.5,0.1
				l4.7-0.1v2l-3-0.1c0.7,0.7,1,1.7,1,3.1c0,2-0.5,3.3-1.5,4.1c-1,0.8-2.5,1.2-4.6,1.2c-0.6,0-1.1,0-1.5-0.1
				c-0.4,0.9-0.6,1.5-0.6,1.8c0,0.6,0.2,1.1,0.6,1.2c0.4,0.2,1.6,0.2,3.6,0.2s3.5,0.3,4.3,0.9s1.3,1.9,1.3,3.7
				C81.2,34.8,78.9,36.4,74.3,36.4z M69.8,31.5c0,1.1,0.3,1.9,0.9,2.3c0.6,0.4,1.8,0.6,3.4,0.6c1.7,0,2.9-0.2,3.6-0.7
				c0.7-0.5,1.1-1.2,1.1-2.3c0-1.1-0.3-1.8-0.8-2.1c-0.5-0.3-1.6-0.5-3.1-0.5l-3.4-0.2c-0.7,0.5-1.2,0.9-1.4,1.3
				C69.9,30.4,69.8,30.9,69.8,31.5z M70,18.4c0,1.2,0.3,2.1,0.8,2.6c0.6,0.5,1.5,0.8,2.8,0.8c1.3,0,2.2-0.3,2.7-0.8
				c0.5-0.5,0.8-1.4,0.8-2.7c0-1.2-0.3-2.1-0.8-2.7c-0.5-0.5-1.5-0.8-2.7-0.8c-1.3,0-2.2,0.3-2.8,0.8C70.3,16.3,70,17.1,70,18.4z"/>
			<path class="st0" d="M89.3,15.1c-2.3,0-3.4,0.8-3.4,2.4c0,0.7,0.3,1.3,0.8,1.6c0.5,0.3,1.7,0.6,3.6,0.9c1.9,0.3,3.2,0.8,4,1.4
				c0.8,0.6,1.2,1.7,1.2,3.3c0,1.6-0.5,2.8-1.6,3.6c-1,0.8-2.6,1.1-4.5,1.1c-1.3,0-2.8-0.1-4.6-0.4l-0.9-0.2l0.1-2
				c2.4,0.4,4.2,0.5,5.4,0.5s2.1-0.2,2.8-0.6c0.6-0.4,1-1,1-1.9s-0.3-1.5-0.8-1.9c-0.5-0.3-1.7-0.6-3.6-0.9
				c-1.8-0.3-3.2-0.7-3.9-1.3c-0.8-0.6-1.2-1.6-1.2-3.1c0-1.5,0.5-2.7,1.6-3.4c1.1-0.7,2.4-1.1,4-1.1c1.3,0,2.9,0.1,4.8,0.4l0.9,0.2
				l-0.1,2C92.5,15.3,90.6,15.1,89.3,15.1z"/>
			<path class="st0" d="M107.1,15.4h-5v7.5c0,1.8,0.1,3,0.4,3.6c0.3,0.6,0.9,0.8,1.9,0.8l2.8-0.2l0.2,1.9c-1.4,0.2-2.5,0.3-3.2,0.3
				c-1.6,0-2.8-0.4-3.4-1.2c-0.6-0.8-0.9-2.3-0.9-4.6v-8.3h-2.2v-2h2.2V8.5h2.3v4.8h5V15.4z"/>
			<path class="st0" d="M121.1,18.1v8c0.1,0.8,0.7,1.2,1.8,1.4l-0.1,1.9c-1.7,0-2.9-0.4-3.7-1.3c-1.9,0.8-3.8,1.3-5.7,1.3
				c-1.4,0-2.5-0.4-3.3-1.2c-0.8-0.8-1.1-2-1.1-3.5c0-1.5,0.4-2.7,1.2-3.4c0.8-0.7,2-1.2,3.6-1.3l4.9-0.5v-1.4
				c0-1.1-0.2-1.8-0.7-2.3c-0.5-0.5-1.1-0.7-1.9-0.7c-1.7,0-3.4,0.1-5.2,0.3l-1,0.1l-0.1-1.8c2.3-0.5,4.3-0.7,6.1-0.7
				c1.8,0,3.1,0.4,3.9,1.2C120.7,15,121.1,16.3,121.1,18.1z M111.4,24.5c0,1.9,0.8,2.9,2.4,2.9c1.4,0,2.8-0.2,4.2-0.7l0.7-0.3v-5.2
				l-4.7,0.4c-0.9,0.1-1.6,0.4-2,0.8C111.6,22.9,111.4,23.6,111.4,24.5z"/>
			<path class="st0" d="M130.7,15.1c-2.3,0-3.4,0.8-3.4,2.4c0,0.7,0.3,1.3,0.8,1.6c0.5,0.3,1.7,0.6,3.6,0.9c1.9,0.3,3.2,0.8,4,1.4
				c0.8,0.6,1.2,1.7,1.2,3.3c0,1.6-0.5,2.8-1.6,3.6c-1,0.8-2.6,1.1-4.5,1.1c-1.3,0-2.8-0.1-4.6-0.4l-0.9-0.2l0.1-2
				c2.4,0.4,4.2,0.5,5.4,0.5c1.2,0,2.1-0.2,2.8-0.6c0.6-0.4,1-1,1-1.9s-0.3-1.5-0.8-1.9c-0.5-0.3-1.7-0.6-3.6-0.9
				c-1.8-0.3-3.2-0.7-3.9-1.3c-0.8-0.6-1.2-1.6-1.2-3.1c0-1.5,0.5-2.7,1.6-3.4c1.1-0.7,2.4-1.1,4-1.1c1.3,0,2.9,0.1,4.8,0.4l0.9,0.2
				l-0.1,2C133.9,15.3,132,15.1,130.7,15.1z"/>
			<path class="st0" d="M142.7,29h-2.4V6.5h2.4v7.7c1.7-0.8,3.3-1.2,4.8-1.2c2.1,0,3.5,0.6,4.2,1.7s1.1,3.1,1.1,6V29h-2.4v-8.2
				c0-2.2-0.2-3.7-0.6-4.5c-0.4-0.8-1.3-1.2-2.7-1.2c-1.3,0-2.6,0.2-3.8,0.7l-0.6,0.2V29z"/>
		</g>
	</g>
	<g>
		<path class="st1" d="M18.1,20.9H0V0l3.4,0c8.1,0,14.7,6.6,14.7,14.7V20.9z"/>
		<path class="st0" d="M18.1,39h-3.4C6.6,39,0,32.4,0,24.3l0-3.4h18.1V39z"/>
		<rect x="18.1" y="20.9" class="st2" width="16.5" height="18.1"/>
		<rect x="18.1" y="20.9" class="st3" width="3.8" height="18.1"/>
	</g>
</g>
</svg>
