<?xml version="1.0" encoding="utf-8"?>
<!-- Generator: Adobe Illustrator 19.0.1, SVG Export Plug-In . SVG Version: 6.00 Build 0)  -->
<svg version="1.1" id="Layer_1" xmlns="http://www.w3.org/2000/svg" xmlns:xlink="http://www.w3.org/1999/xlink" x="0px" y="0px"
	 viewBox="0 0 127 39" style="enable-background:new 0 0 127 39;" xml:space="preserve">
<style type="text/css">
	.st0{fill:#010101;}
	.st1{fill:#E8478B;}
	.st2{fill:#40BEB0;}
	.st3{fill:#37A595;}
</style>
<g>
	<g>
		<g>
			<path class="st0" d="M43.7,29.3h-2.4v-23h2.4v13.6l2.5-0.1l4.6-6.5h2.7l-5.2,7.4l5.4,8.7H51l-4.8-7.4l-2.5,0.1V29.3z"/>
			<path class="st0" d="M56.7,9.6V6.8h2.4v2.8H56.7z M56.7,29.3v-16h2.4v16H56.7z"/>
			<path class="st0" d="M70.8,12.9c2.2,0,3.7,0.6,4.5,1.8c0.9,1.2,1.3,3.4,1.3,6.5s-0.5,5.2-1.6,6.5c-1.1,1.2-3.1,1.9-5.9,1.9
				c-0.9,0-2.4-0.1-4.5-0.3l-0.9-0.1v-23h2.4v7.8C67.7,13.3,69.3,12.9,70.8,12.9z M69,27.4c2.1,0,3.5-0.5,4.1-1.4c0.7-1,1-2.6,1-4.8
				c0-2.3-0.3-3.8-0.8-4.8c-0.5-0.9-1.5-1.4-2.9-1.4c-1.2,0-2.5,0.2-3.8,0.7L66.1,16v11.3C67.5,27.4,68.4,27.4,69,27.4z"/>
			<path class="st0" d="M91.9,18.1v8.2c0.1,0.8,0.7,1.3,1.9,1.4l-0.1,1.9c-1.7,0-3-0.4-3.8-1.3c-1.9,0.9-3.8,1.3-5.8,1.3
				c-1.5,0-2.6-0.4-3.4-1.2c-0.8-0.8-1.2-2-1.2-3.6c0-1.6,0.4-2.7,1.2-3.4c0.8-0.7,2-1.2,3.7-1.4l5-0.5v-1.4c0-1.1-0.2-1.9-0.7-2.3
				c-0.5-0.5-1.1-0.7-1.9-0.7c-1.7,0-3.5,0.1-5.3,0.3l-1,0.1l-0.1-1.8c2.3-0.5,4.4-0.7,6.2-0.7c1.8,0,3.1,0.4,4,1.2
				C91.4,15,91.9,16.3,91.9,18.1z M82,24.6c0,2,0.8,2.9,2.4,2.9c1.5,0,2.9-0.2,4.3-0.7l0.7-0.3v-5.3l-4.7,0.4
				c-1,0.1-1.7,0.4-2.1,0.8C82.2,23,82,23.7,82,24.6z"/>
			<path class="st0" d="M99,29.3h-2.4v-16H99v1.1c1.7-1,3.4-1.4,5-1.4c2.1,0,3.6,0.6,4.3,1.7c0.7,1.2,1.1,3.2,1.1,6.2v8.5H107v-8.4
				c0-2.2-0.2-3.7-0.7-4.6c-0.4-0.8-1.4-1.2-2.8-1.2c-0.7,0-1.4,0.1-2.2,0.3c-0.8,0.2-1.3,0.4-1.7,0.6L99,16.3V29.3z"/>
			<path class="st0" d="M125.1,18.1v8.2c0.1,0.8,0.7,1.3,1.9,1.4l-0.1,1.9c-1.7,0-3-0.4-3.8-1.3c-1.9,0.9-3.8,1.3-5.8,1.3
				c-1.5,0-2.6-0.4-3.4-1.2c-0.8-0.8-1.2-2-1.2-3.6c0-1.6,0.4-2.7,1.2-3.4c0.8-0.7,2-1.2,3.7-1.4l5-0.5v-1.4c0-1.1-0.2-1.9-0.7-2.3
				c-0.5-0.5-1.1-0.7-1.9-0.7c-1.7,0-3.5,0.1-5.3,0.3l-1,0.1l-0.1-1.8c2.3-0.5,4.4-0.7,6.2-0.7c1.8,0,3.1,0.4,4,1.2
				C124.7,15,125.1,16.3,125.1,18.1z M115.2,24.6c0,2,0.8,2.9,2.4,2.9c1.5,0,2.9-0.2,4.3-0.7l0.7-0.3v-5.3l-4.7,0.4
				c-1,0.1-1.7,0.4-2.1,0.8C115.5,23,115.2,23.7,115.2,24.6z"/>
		</g>
	</g>
	<g>
		<path class="st1" d="M0.6,14.6c5.2,0,10.1,1.3,14.3,3.6L30,0H0v36.2v0V14.6C0.2,14.6,0.4,14.6,0.6,14.6z"/>
		<path class="st2" d="M14.9,18.2L0,36.2V39h30C28.3,30,22.6,22.5,14.9,18.2z"/>
		<path class="st3" d="M14.9,18.2L0,36.2V39h5.3l14.4-17.4c0,0-1-0.8-2.3-1.8C16.4,19.1,14.9,18.2,14.9,18.2z"/>
		<path class="st0" d="M0.6,14.6c-0.2,0-0.4,0-0.6,0v21.5l14.9-17.9C10.6,15.9,5.7,14.6,0.6,14.6z"/>
	</g>
</g>
</svg>
